<svg xmlns="http://www.w3.org/2000/svg" viewBox="0 0 128 128" width="128" height="128">
  <defs>
    <linearGradient id="bgGrad" x1="0%" y1="0%" x2="100%" y2="100%">
      <stop offset="0%"   stop-color="#1a2a6c"/>
      <stop offset="55%"  stop-color="#2e3d9e"/>
      <stop offset="100%" stop-color="#b92b27"/>
    </linearGradient>
    <linearGradient id="shineGrad" x1="10%" y1="0%" x2="50%" y2="100%">
      <stop offset="0%"   stop-color="#ffffff" stop-opacity="0.28"/>
      <stop offset="55%"  stop-color="#ffffff" stop-opacity="0.05"/>
      <stop offset="100%" stop-color="#ffffff" stop-opacity="0"/>
    </linearGradient>
    <linearGradient id="letterGrad" x1="0%" y1="0%" x2="20%" y2="100%">
      <stop offset="0%"   stop-color="#ffffff" stop-opacity="1"/>
      <stop offset="100%" stop-color="#dce8ff" stop-opacity="0.9"/>
    </linearGradient>
    <filter id="letterGlow" x="-60%" y="-60%" width="220%" height="220%">
      <feDropShadow dx="0" dy="2" stdDeviation="3.5" flood-color="#00001a" flood-opacity="0.55"/>
    </filter>
    <filter id="iconShadow" x="-15%" y="-10%" width="130%" height="135%">
      <feDropShadow dx="0" dy="5" stdDeviation="7" flood-color="#0a0f2e" flood-opacity="0.45"/>
    </filter>
    <clipPath id="roundClip">
      <rect x="4" y="4" width="120" height="120" rx="26" ry="26"/>
    </clipPath>
  </defs>

  <!-- Outer drop shadow -->
  <rect x="4" y="4" width="120" height="120" rx="26" fill="url(#bgGrad)" filter="url(#iconShadow)"/>

  <!-- Main gradient background -->
  <rect x="4" y="4" width="120" height="120" rx="26" fill="url(#bgGrad)"/>

  <!-- Glass shine overlay -->
  <rect x="4" y="4" width="120" height="120" rx="26" fill="url(#shineGrad)"/>

  <!-- Top ellipse highlight -->
  <ellipse cx="52" cy="23" rx="38" ry="14" fill="white" opacity="0.13" clip-path="url(#roundClip)"/>

  <!-- Bottom inner shadow -->
  <rect x="4" y="74" width="120" height="50" fill="#000020" opacity="0.18" clip-path="url(#roundClip)"/>

  <!-- Glass border -->
  <rect x="5" y="5" width="118" height="118" rx="25" fill="none" stroke="white" stroke-opacity="0.25" stroke-width="1.5"/>

  <!-- i dot -->
  <circle cx="64" cy="37" r="8.5" fill="url(#letterGrad)" filter="url(#letterGlow)"/>

  <!-- i stem -->
  <rect x="57.5" y="52" width="13" height="44" rx="6.5" fill="url(#letterGrad)" filter="url(#letterGlow)"/>

  <!-- i stem top highlight -->
  <rect x="57.5" y="52" width="13" height="8" rx="6.5" fill="white" opacity="0.35" clip-path="url(#roundClip)"/>

</svg>
